<svg width="48" xmlns="http://www.w3.org/2000/svg" height="48" id="screenshot-00aaadea-ee22-80d7-8007-b57252c074ad" viewBox="0 0 48 48" xmlns:xlink="http://www.w3.org/1999/xlink" fill="none" version="1.1"><g id="shape-00aaadea-ee22-80d7-8007-b57252c074ad"><defs><clipPath id="frame-clip-00aaadea-ee22-80d7-8007-b57252c074ad-render-1" class="frame-clip frame-clip-def"><rect rx="0" ry="0" x="0" y="0" width="47.99999999984993" height="47.99999999984993" transform="matrix(1.000000, 0.000000, 0.000000, 1.000000, 0.000000, 0.000000)"/></clipPath></defs><g class="frame-container-wrapper"><g class="frame-container-blur"><g class="frame-container-shadows"><g clip-path="url(#frame-clip-00aaadea-ee22-80d7-8007-b57252c074ad-render-1)" fill="none"><g class="fills" id="fills-00aaadea-ee22-80d7-8007-b57252c074ad"><rect width="47.99999999984993" height="47.99999999984993" class="frame-background" x="0" transform="matrix(1.000000, 0.000000, 0.000000, 1.000000, 0.000000, 0.000000)" style="fill: rgb(255, 255, 255); fill-opacity: 0;" ry="0" rx="0" y="0"/></g><g class="frame-children"><g id="shape-00aaadea-ee22-80d7-8007-b57252c074ae" width="1080mm" height="1080mm" xmlns:xlink="http://www.w3.org/1999/xlink" rx="0" ry="0" style="fill: rgb(0, 0, 0);"><g id="shape-00aaadea-ee22-80d7-8007-b57252c074af" style="display: none;"><g class="fills" id="fills-00aaadea-ee22-80d7-8007-b57252c074af"><rect width="34.499999999892" height="34.499999999892225" x="6.749999999978854" transform="matrix(1.000000, 0.000000, 0.000000, 1.000000, 0.000000, 0.000000)" style="fill: none;" ry="0" fill="none" rx="0" y="6.749999999978854"/></g></g><g id="shape-00aaadea-ee22-80d7-8007-b57252c074b0"><defs style="fill: rgb(0, 0, 0);"/></g><g id="shape-00aaadea-ee22-80d7-8007-b57252c074b1"><defs><linearGradient x1="238.125" y1="257.746" x2="777.214" y2="257.746" xlink:href="#render-5-b" id="render-5-c" gradientUnits="userSpaceOnUse" gradientTransform="matrix(0.031944, 0.000000, 0.000000, 0.031944, 6.750000, 6.750000) translate(85.989583,92.604167)"/><linearGradient id="render-5-b"><stop offset="0" style="stop-color: rgb(149, 132, 255); stop-opacity: 1;"/><stop offset="1" style="stop-color: rgb(149, 132, 255); stop-opacity: 1;"/></linearGradient></defs><g class="fills" id="fills-00aaadea-ee22-80d7-8007-b57252c074b1"><path d="M19.9033203125,16.4169921875C26.81201171875,14.9073486328125,34.324462890625,15.149169921875,34.324462890625,15.149169921875C34.324462890625,15.149169921875,34.0556640625,18.719482421875,31.762451171875,19.6656494140625C29.46923828125,20.61181640625,17.103759765625,20.74853515625,17.103759765625,20.74853515625C17.103759765625,20.74853515625,17.136962890625,17.021484375,19.9033203125,16.4169921875Z" style="fill: url(&quot;#render-5-c&quot;); stroke-width: 11.384;"/></g></g><g id="shape-00aaadea-ee22-80d7-8007-b57252c074b2"><defs><linearGradient x1="234.347" y1="449.15" x2="646.41" y2="449.15" xlink:href="#render-6-a" id="render-6-d" gradientUnits="userSpaceOnUse" gradientTransform="matrix(0.031944, 0.000000, 0.000000, 0.031944, 6.750000, 6.750000) translate(85.989583,92.604167)"/><linearGradient id="render-6-a"><stop offset="0" style="stop-color: rgb(27, 0, 91); stop-opacity: 1;"/><stop offset="1" style="stop-color: rgb(149, 132, 255); stop-opacity: 1;"/></linearGradient></defs><g class="fills" id="fills-00aaadea-ee22-80d7-8007-b57252c074b2"><path d="M19.412353515625,22.5565185546875C24.71484375,21.3245849609375,30.14599609375,22.0780029296875,30.14599609375,22.0780029296875C30.14599609375,22.0780029296875,29.68408203125,24.8433837890625,27.4921875,25.6378173828125C25.30029296875,26.43212890625,16.98291015625,26.2423095703125,16.98291015625,26.2423095703125C16.98291015625,26.2423095703125,17.2890625,23.0498046875,19.412353515625,22.5565185546875Z" style="fill: url(&quot;#render-6-d&quot;); stroke-width: 9.90518;"/></g></g><g id="shape-00aaadea-ee22-80d7-8007-b57252c074b3"><g class="fills" id="fills-00aaadea-ee22-80d7-8007-b57252c074b3"><path d="M23.176513671875,21.972900390625C21.945556640625,22.0767822265625,20.6416015625,22.2587890625,19.3447265625,22.56005859375C18.37890625,22.784423828125,17.7978515625,22.963623046875,17.41552734375,24.331298828125C16.9130859375,26.16357421875,15.639892578125,31.0235595703125,14.752685546875,34.3697509765625C14.752685546875,34.3697509765625,17.412353515625,34.9708251953125,19.3037109375,32.7467041015625C21.0244140625,30.72314453125,22.021728515625,26.5255126953125,22.189208984375,25.7777099609375Z" style="stroke-width: 9.90518; fill: rgb(149, 132, 255); fill-opacity: 1;"/></g></g></g></g></g></g></g></g></g></svg>